<?xml version="1.0" encoding="utf-8"?>
<!-- Generator: Adobe Illustrator 26.0.1, SVG Export Plug-In . SVG Version: 6.00 Build 0)  -->
<svg version="1.1" id="Layer_1" xmlns="http://www.w3.org/2000/svg" xmlns:xlink="http://www.w3.org/1999/xlink" x="0px" y="0px"
	 viewBox="0 0 150 150" style="enable-background:new 0 0 150 150;" xml:space="preserve">
<style type="text/css">
	.st0{fill:#121212;}
</style>
<g>
	<path class="st0" d="M14.61,78.96v2.63H4.07l-2.64-2.63V68.41h2.64v9.23l1.32,1.32H14.61z"/>
	<path class="st0" d="M30.43,68.41v10.55l-2.63,2.63h-7.91l-2.63-2.63V68.41h2.63v9.23l1.32,1.32h5.27l1.32-1.32v-9.22H30.43z"/>
	<path class="st0" d="M35.72,72.36v5.27l1.32,1.32h9.23v2.64H35.72l-2.64-2.64v-7.91l2.64-2.63h10.54v2.63h-9.22L35.72,72.36z"/>
	<path class="st0" d="M48.9,71.04v-2.63h13.18v2.63H48.9z M48.9,76.32v-2.64h13.18v2.64H48.9z M48.9,81.59v-2.64h13.18v2.64H48.9z
		 M51.54,81.59H48.9V68.41h2.64V81.59z M138.03,81.59h-2.64V68.41h2.64V81.59z"/>
	<path class="st0" d="M72.09,71.04v-2.63h13.18v2.63H72.09z M74.73,73.68h10.54v2.64h-9.22l-1.32,1.32v3.96h-2.63v-5.27L74.73,73.68
		z"/>
	<path class="st0" d="M101.1,71.05v7.91l-2.64,2.64h-7.91l-2.64-2.64v-5.27h2.64v4.26l1.01,1.01h5.89l1.01-1.01v-5.89l-1.01-1.01
		h-9.53v-2.64h10.54L101.1,71.05z"/>
	<path class="st0" d="M116.92,71.05v2.64l-2.64,2.64h-10.54v-2.64h9.23l1.32-1.32l-1.32-1.32h-9.23v-2.64h10.54L116.92,71.05z
		 M103.74,81.59v-2.63h13.18v2.63H103.74z"/>
	<path class="st0" d="M122.2,72.36v5.27l1.32,1.32h5.27l1.32-1.32l-1.32-1.32h-3.95v-2.64h5.27l2.64,2.64v2.64l-2.64,2.64h-7.91
		l-2.64-2.64v-7.91l2.64-2.63h10.54v2.63h-9.23L122.2,72.36z"/>
	<path class="st0" d="M135.39,71.04v-2.63h13.18v2.63H135.39z M135.39,76.32v-2.64h13.18v2.64H135.39z M135.39,81.59v-2.64h13.18
		v2.64H135.39z"/>
</g>
<polygon class="st0" points="50,63.77 76.53,63.77 90,13.77 "/>
<polygon class="st0" points="100,86.06 73.47,86.06 60,136.06 "/>
</svg>
